# xmcd
#
# Track frame offsets:
#	150
#	40944
#	56291
#	72469
#	84851
#	102516
#	118644
#	137422
#	154540
#	173415
#	196539
#	215725
#	234298
#	264994
#	282544
#
# Disc length: 4110 seconds
#
# Revision: 1
# Processed by: cddbd v1.5.2PL0 Copyright (c) Steve Scherf et al.
# Submitted via: audiograbber 1.83.01
#
DISCID=c3100c0f
DTITLE=Various Artist - Edge Of 80's - On The Dancefloor, disc 2
DYEAR=1900
DGENRE=Retro
TTITLE0=SHEILA E - The Glamorous Life
TTITLE1=THE WHISPERS - And The Beat Goes On
TTITLE2=COLLETTE - Ring My Bell
TTITLE3=THE NOLANS - Gotta Pull Myself Togeather
TTITLE4=MEL and KIM - F.L.M.
TTITLE5=SUZI QUATRO - She's In Love With You
TTITLE6=THE PARTY BOYS - He's Gonna Step On You Again
TTITLE7=SAMANTHA FOX - Do Ya Do Ya
TTITLE8=LAURA BRANIGAN - The Lucky One
TTITLE9=JODY WATLEY - Looking For A New Love
TTITLE10=MIAMI SOUND MACHINE - Conga
TTITLE11=FAT BOYS and CHUBBY CHECKER - The Twist
TTITLE12=C&C MUSIC FACTORY - Everybody Dance Now
TTITLE13=DEEE-LITE - Groove Is In The Heart
TTITLE14=SNAP - The Power
EXTD=
EXTT0=
EXTT1=
EXTT2=
EXTT3=
EXTT4=
EXTT5=
EXTT6=
EXTT7=
EXTT8=
EXTT9=
EXTT10=
EXTT11=
EXTT12=
EXTT13=
EXTT14=
PLAYORDER=
